<svg aria-hidden="true" style="position:absolute;width:0;height:0" xmlns="http://www.w3.org/2000/svg" overflow="hidden">
<defs>
  <symbol id="icon-client-a" viewBox="0 0 32 32">
    <path fill="var(--color1, #afb1b8)" d="M12.983 11.611l1.336 1.226h3.727v3.419l1.336 1.226v-5.87h-6.4z"/>
    <path fill="var(--color1, #afb1b8)" d="M11.886 12.785v5.702h6.217V16.22l-3.744-3.434-2.473-.001zm5.033 4.869H12.87v-3.835h.286v3.575h3.763v.26zM13.676 19.563l.15-.308h.125l-.218.411v.239h-.113v-.239l-.218-.411h.125l.15.308zm.642.191h-.252l-.053.151h-.117l.246-.65h.101l.246.65h-.118l-.053-.151zm-.22-.091h.188l-.094-.27-.094.27zm.665.067c0-.03.008-.058.025-.083s.049-.055.097-.09c-.025-.032-.043-.059-.053-.081s-.015-.044-.015-.065c0-.051.015-.091.046-.121s.073-.045.125-.045c.047 0 .086.014.116.042s.046.062.046.103c0 .027-.007.052-.021.075s-.036.045-.067.068l-.044.032.125.148a.26.26 0 00.027-.119h.094c0 .08-.019.146-.056.197l.096.113h-.126l-.037-.043c-.046.035-.102.052-.166.052s-.116-.017-.154-.051a.172.172 0 01-.058-.134zm.215.098a.163.163 0 00.103-.037l-.142-.167-.014.01c-.036.027-.054.058-.054.093 0 .03.01.054.029.073s.045.028.078.028zm-.06-.419c0 .025.015.056.046.094l.05-.034.014-.011a.081.081 0 00.028-.063c0-.017-.006-.031-.019-.043s-.029-.018-.049-.018c-.021 0-.038.007-.05.021s-.019.032-.019.054zm1.181.285c-.007.069-.032.124-.077.163s-.104.058-.178.058a.24.24 0 01-.228-.142.371.371 0 01-.033-.158v-.061c0-.061.011-.115.033-.162a.247.247 0 01.234-.146c.072 0 .129.02.173.058s.069.094.076.165h-.113c-.005-.047-.019-.08-.041-.101s-.054-.031-.096-.031c-.049 0-.087.018-.113.054s-.04.088-.04.158v.058c0 .07.012.124.037.161s.062.055.111.055c.044 0 .078-.01.1-.03s.036-.053.042-.1h.112zm.62-.097c0 .064-.011.12-.033.168s-.054.085-.095.111c-.041.026-.088.038-.141.038s-.1-.013-.141-.038c-.041-.026-.073-.063-.096-.11s-.034-.103-.034-.165v-.037c0-.063.011-.119.033-.168s.054-.086.095-.111c.041-.026.088-.039.141-.039s.1.013.141.038c.041.025.073.062.095.11s.034.103.034.166v.036zm-.113-.034c0-.072-.014-.127-.041-.166s-.066-.058-.116-.058c-.049 0-.087.019-.115.058s-.041.092-.042.162v.038c0 .071.014.127.042.166s.067.058.116.058c.05 0 .088-.019.115-.057s.041-.094.041-.167v-.034z"/>
  </symbol>
  <symbol id="icon-client-b" viewBox="0 0 32 32">
    <path fill="var(--color1, #afb1b8)" d="M15.539 11.782h.025c.046 0 .096.005.146.009.218.015.435.048.648.098v-.524a3.778 3.778 0 00-.668-.106 4.568 4.568 0 00-.27-.013h-.078c-.453.002-.903.06-1.341.173a5.404 5.404 0 00-1.423.579v5.193a5.93 5.93 0 012.496-.704h.015c.064-.003.129-.005.195-.006v-.532a6.218 6.218 0 00-1.48.197 7.114 7.114 0 00-.514.153l-.185.063v-4.049l.079-.038a5.184 5.184 0 011.923-.491h.017c.074-.004.148-.006.22-.006h.083l.115.004z"/>
    <path fill="var(--color1, #afb1b8)" d="M16.843 12.331a4.645 4.645 0 01-1.016-.112v5.133c.333.082.675.123 1.018.12.453-.002.903-.06 1.341-.173a5.48 5.48 0 001.424-.579v-5.1c-.428.233-.884.41-1.356.529a5.787 5.787 0 01-1.41.181zm2.053.088l.185-.062v4.05l-.079.038c-.303.144-.62.258-.946.34a4.948 4.948 0 01-1.211.157c-.122 0-.243-.005-.361-.015l-.127-.011v-4.165l.148.01a6.277 6.277 0 002.39-.341zM12.935 18.965a.268.268 0 00-.206-.084.303.303 0 00-.212.083.261.261 0 00-.06.093.304.304 0 00-.021.115v.694a.327.327 0 00.027.142.246.246 0 00.164.142.407.407 0 00.104.014.297.297 0 00.266-.181.282.282 0 00.022-.111v-.078h-.181v.062a.148.148 0 01-.011.062.116.116 0 01-.026.039.12.12 0 01-.076.026.093.093 0 01-.086-.037.168.168 0 01-.024-.093v-.647a.234.234 0 01.022-.104c.009-.015.023-.026.038-.034s.033-.01.05-.008a.094.094 0 01.081.039c.02.027.031.059.03.093v.06h.18v-.071a.333.333 0 00-.022-.121.279.279 0 00-.061-.098zM14.012 18.957a.32.32 0 00-.314-.056.28.28 0 00-.166.154.324.324 0 00-.026.134v.665a.333.333 0 00.026.136c.016.036.04.068.07.093.028.026.06.046.096.059s.071.019.108.02a.304.304 0 00.274-.172.303.303 0 00.026-.136v-.665a.324.324 0 00-.026-.134.289.289 0 00-.068-.097zm-.084.897a.117.117 0 01-.036.096.133.133 0 01-.17 0 .117.117 0 01-.036-.096v-.665a.117.117 0 01.036-.096.133.133 0 01.17 0 .117.117 0 01.036.096v.665zM15.427 20.151v-1.26h-.174l-.229.667h-.003l-.231-.667h-.173v1.26h.18v-.766h.003l.176.542h.09l.178-.542h.003v.766h.18zM16.449 18.979a.253.253 0 00-.102-.069.41.41 0 00-.13-.02h-.267v1.26h.179v-.492h.093a.324.324 0 00.162-.034.294.294 0 00.14-.206.973.973 0 00-.008-.323.275.275 0 00-.066-.116zm-.092.384c-.001.023-.006.045-.017.066s-.026.035-.046.044a.192.192 0 01-.085.016h-.082v-.428h.093a.173.173 0 01.081.016.104.104 0 01.042.046c.01.022.015.046.016.07v.084c0 .03.002.059 0 .086h-.002zM17.3 18.891h-.147l-.278 1.26h.179l.053-.271h.245l.053.271h.18l-.285-1.26zm-.166.818l.088-.457h.003l.088.457h-.18zM18.459 19.65h-.003l-.271-.759h-.173v1.26h.179v-.757h.004l.274.757h.169v-1.26h-.179v.759zM19.556 18.891l-.144.501h-.004l-.144-.501h-.19l.247.727v.532h.18v-.532l.247-.727h-.19zM12.434 20.506h.086v.243h.059v-.243h.086v-.05h-.231v.05zM13.161 20.457l-.113.292h.062l.024-.067h.117l.025.067h.064l-.116-.292h-.062zm-.009.176l.04-.108.04.108h-.08zM13.88 20.641h.068v.038a.117.117 0 01-.069.025.072.072 0 01-.062-.028.128.128 0 01-.022-.076c0-.065.028-.098.084-.098.015-.001.03.002.042.011s.021.021.025.036l.058-.011c-.012-.057-.054-.086-.124-.086a.143.143 0 00-.102.038c-.015.015-.026.032-.033.052s-.01.04-.009.061a.163.163 0 00.037.11c.014.015.032.026.051.034s.04.011.06.009a.174.174 0 00.124-.047v-.115h-.127v.049zM14.614 20.457h-.059v.292h.205v-.05h-.146v-.243zM15.235 20.457h-.059v.292h.059v-.292zM15.842 20.652l-.12-.195h-.057v.292h.055v-.191l.117.191h.059v-.292h-.054v.195zM16.391 20.62h.146v-.05h-.146v-.064h.157v-.05h-.216v.292h.222v-.05h-.163v-.079zM17.721 20.572h-.115v-.115h-.059v.292h.059v-.128h.115v.128h.059v-.292h-.059v.115zM18.273 20.62h.146v-.05h-.146v-.064h.157v-.05h-.216v.292h.222v-.05h-.163v-.079zM19.021 20.62c.051-.008.077-.035.077-.081.001-.012 0-.025-.006-.037s-.013-.021-.023-.029a.168.168 0 00-.086-.017h-.124v.292h.059v-.122h.012a.08.08 0 01.037.006.06.06 0 01.021.021l.064.093h.07l-.036-.057a.207.207 0 00-.065-.07zm-.059-.04h-.043v-.073h.046c.02-.002.04.001.06.007.004.004.008.009.01.014s.003.011.003.017c0 .006-.002.011-.004.016s-.007.009-.011.013a.173.173 0 01-.06.007zM19.586 20.62h.146v-.05h-.146v-.064h.157v-.05h-.216v.292h.222v-.05h-.163v-.079z"/>
  </symbol>
  <symbol id="icon-client-c" viewBox="0 0 32 32">
    <path fill="var(--color1, #afb1b8)" d="M12.68 19.564l.008.002.007.004.038.038a.305.305 0 01-.106.073.402.402 0 01-.15.026.377.377 0 01-.141-.024.304.304 0 01-.175-.175.375.375 0 01.002-.272.315.315 0 01.186-.175.398.398 0 01.145-.024.365.365 0 01.135.022.383.383 0 01.101.061l-.031.041-.008.007a.025.025 0 01-.013.003.033.033 0 01-.014-.004l-.017-.011-.024-.014a.3.3 0 00-.234-.01.247.247 0 00-.082.051.232.232 0 00-.053.082.286.286 0 00-.019.108.291.291 0 00.019.109.225.225 0 00.13.131c.03.011.064.018.097.017a.544.544 0 00.057-.003.204.204 0 00.087-.029.25.25 0 00.037-.027.029.029 0 01.018-.007zM13.767 19.372a.348.348 0 01-.025.135c-.015.039-.039.075-.071.105s-.069.053-.111.069a.438.438 0 01-.286 0c-.042-.016-.079-.039-.111-.069s-.056-.067-.071-.106a.37.37 0 010-.27.314.314 0 01.071-.106.304.304 0 01.111-.066.425.425 0 01.286 0 .31.31 0 01.182.174c.017.043.026.09.025.136zm-.099 0a.29.29 0 00-.018-.109.22.22 0 00-.129-.132.31.31 0 00-.208 0 .22.22 0 00-.13.132.336.336 0 000 .217.223.223 0 00.13.132.322.322 0 00.208 0 .22.22 0 00.129-.132.29.29 0 00.018-.109zM14.508 19.486l.01.024.011-.024.012-.024.24-.403c.005-.007.009-.011.014-.013a.044.044 0 01.02-.002h.071v.656h-.084v-.482-.02-.023l-.242.409a.04.04 0 01-.035.021h-.014c-.007 0-.015-.002-.021-.005s-.011-.009-.014-.015l-.249-.412v.526h-.081v-.655h.071c.007 0 .013 0 .02.002s.01.007.013.013l.246.404a.1.1 0 01.012.023zM15.412 19.454v.246h-.094v-.655h.21a.417.417 0 01.117.014.23.23 0 01.083.041c.021.018.037.04.047.064a.221.221 0 01-.001.168.181.181 0 01-.051.066.22.22 0 01-.083.043.362.362 0 01-.113.015l-.114-.002zm0-.071h.114a.257.257 0 00.073-.01.18.18 0 00.053-.028.126.126 0 00.043-.098c.001-.018-.002-.036-.009-.053s-.019-.032-.033-.045a.195.195 0 00-.127-.035h-.114v.27zM16.677 19.7h-.074c-.007 0-.015-.002-.021-.006s-.01-.009-.012-.015l-.064-.158h-.321l-.066.158c-.002.006-.006.011-.012.015s-.014.007-.021.006h-.074l.282-.656h.098l.286.656zm-.466-.243h.265l-.112-.267a.348.348 0 01-.021-.062l-.011.034-.01.028-.111.267zM17.083 19.047a.04.04 0 01.014.012l.412.494v-.023V19.043h.084v.656h-.047c-.007 0-.013-.001-.019-.004s-.011-.007-.015-.012l-.411-.494v.511h-.084v-.656h.05c.006 0 .012.001.017.003zM18.286 19.439v.261h-.094v-.261l-.26-.395h.084c.007 0 .014.002.02.006s.009.009.013.015l.163.255.017.03c.005.009.008.019.012.028l.012-.028.016-.03.16-.257.012-.014a.032.032 0 01.02-.007h.085l-.261.397zM14.461 17.943c.041.005.082.009.124.012.635-.262 1.171-.691 1.544-1.233s.563-1.173.548-1.815l-.699-.646c.142.683.076 1.389-.192 2.039s-.726 1.219-1.324 1.642z"/>
    <path fill="var(--color1, #afb1b8)" d="M14.212 17.913l.019.003c.639-.422 1.126-1.011 1.398-1.691s.317-1.42.129-2.124l-.996-.919c.403.756.565 1.602.468 2.439s-.45 1.632-1.018 2.292zM17.59 15.665a3.315 3.315 0 01-1.172 1.813 3.683 3.683 0 01-.557.369c.482-.131.925-.362 1.295-.676s.657-.702.838-1.134l-.404-.373z"/>
    <path fill="var(--color1, #afb1b8)" d="M17.432 15.562l-.575-.531c-.011.605-.197 1.197-.54 1.713s-.829.939-1.408 1.223h.003c.129 0 .258-.007.386-.021.541-.204 1.019-.528 1.392-.944s.627-.911.742-1.44zM14.295 12.794l-.686-.634c-.613.219-1.141.603-1.514 1.104s-.573 1.093-.575 1.7c.002.671.247 1.322.695 1.85s1.074.903 1.779 1.066c.629-.708.998-1.582 1.052-2.497s-.209-1.821-.751-2.588zM19.017 15.464c-.003-.796-.346-1.558-.956-2.121s-1.436-.88-2.298-.882c-.398 0-.793.068-1.165.2l4.202 3.878c.144-.343.217-.707.217-1.075z"/>
  </symbol>
  <symbol id="icon-client-d" viewBox="0 0 32 32">
    <path fill="var(--color1, #afb1b8)" d="M10.929 14.616h-.001c-.426 0-.771.317-.771.707 0 .391.345.707.771.707h.001c.426 0 .771-.317.771-.707 0-.391-.345-.707-.771-.707zM16.62 14.39c-.001-.542-.237-1.062-.655-1.446s-.985-.6-1.576-.601c-.592.001-1.159.217-1.577.601s-.654.904-.655 1.446v2.991s4.463-.456 4.464-2.991zM8.594 18.363c.001.377.165.739.456 1.006s.685.417 1.097.419c.411-.001.806-.151 1.097-.418s.455-.628.456-1.006v-2.082s-3.106.317-3.106 2.081zm1.553.373c-.08 0-.159-.022-.226-.063s-.119-.099-.15-.167-.039-.143-.023-.215.054-.139.111-.191c.057-.052.129-.088.208-.102s.161-.007.235.021c.074.028.138.076.182.137s.069.133.069.207c0 .049-.01.098-.031.143s-.05.087-.088.121a.416.416 0 01-.288.11v-.001zM13.301 18.529h-.309v.319h-.161v-.78h.508v.13h-.347v.201h.309v.13zm.773-.054c0 .077-.014.144-.041.202a.306.306 0 01-.291.181c-.066 0-.122-.016-.173-.047s-.09-.075-.118-.133a.451.451 0 01-.042-.199v-.039c0-.077.014-.144.041-.203s.067-.103.117-.134c.051-.031.109-.047.174-.047s.123.016.173.047c.051.031.09.076.117.134s.042.126.042.202v.035zm-.163-.035c0-.082-.015-.144-.044-.186s-.071-.064-.125-.064c-.054 0-.096.021-.125.063s-.044.103-.044.184v.038c0 .08.015.141.044.185s.071.066.126.066c.054 0 .095-.021.124-.063s.044-.104.044-.185v-.038zm.684.203c0-.03-.011-.054-.032-.07s-.06-.034-.116-.051a.738.738 0 01-.132-.054c-.089-.048-.133-.112-.133-.193 0-.042.012-.08.035-.113s.058-.059.102-.078c.045-.019.095-.028.15-.028s.105.01.149.031a.225.225 0 01.137.21h-.161c0-.036-.011-.063-.034-.083s-.054-.03-.095-.03c-.039 0-.07.008-.092.025s-.033.038-.033.065c0 .025.013.047.038.064s.063.033.113.048c.091.027.158.062.2.102s.063.091.063.152c0 .067-.026.121-.077.159s-.12.057-.206.057c-.06 0-.115-.011-.164-.033s-.087-.052-.113-.091a.229.229 0 01-.039-.133h.161c0 .086.051.129.154.129.038 0 .068-.008.089-.023s.032-.038.032-.065zm.858-.445h-.239v.65h-.161v-.65h-.236v-.13h.635v.13zm.561.312h-.309v.209h.362v.129h-.523v-.78h.522v.13h-.361v.186h.309v.126zm.437.052h-.128v.286h-.161v-.78h.29c.092 0 .163.021.213.062s.075.099.075.174c0 .053-.012.098-.035.133s-.058.064-.104.085l.169.319v.008h-.172l-.146-.286zm-.128-.13h.13c.04 0 .072-.01.094-.031s.033-.049.033-.085c0-.037-.011-.066-.032-.087s-.053-.032-.096-.032h-.129v.234zm.973.141v.275h-.161v-.78h.304c.059 0 .11.011.154.032s.079.052.103.092a.251.251 0 01.036.134c0 .076-.026.137-.079.181s-.124.066-.217.066h-.141zm0-.13h.144c.043 0 .075-.01.097-.03s.034-.049.034-.086c0-.038-.011-.069-.034-.093s-.054-.036-.093-.036h-.147v.245zm1.017.067h-.309v.209h.362v.129h-.523v-.78h.522v.13h-.361v.186h.309v.126zm.746-.312h-.239v.65h-.161v-.65h-.236v-.13h.635v.13zm.561.312h-.308v.209h.362v.129h-.523v-.78h.522v.13h-.361v.186h.308v.126zm.437.052h-.128v.286h-.161v-.78h.29c.092 0 .163.021.213.062s.075.099.075.174c0 .053-.012.098-.035.133s-.058.064-.104.085l.169.319v.008h-.172l-.146-.286zm-.128-.13h.13c.04 0 .072-.01.094-.031s.033-.049.033-.085c0-.037-.011-.066-.032-.087s-.053-.032-.096-.032h-.129v.234zm.944.211c0-.03-.011-.054-.032-.07s-.06-.034-.116-.051a.738.738 0 01-.132-.054c-.088-.048-.133-.112-.133-.193 0-.042.012-.08.035-.113s.058-.059.102-.078c.045-.019.095-.028.15-.028s.105.01.149.031a.225.225 0 01.137.21h-.161c0-.036-.011-.063-.034-.083s-.054-.03-.095-.03c-.039 0-.07.008-.092.025s-.033.038-.033.065c0 .025.013.047.038.064s.063.033.113.048c.091.027.158.062.2.102s.063.091.063.152c0 .067-.025.121-.076.159s-.12.057-.206.057c-.06 0-.115-.011-.164-.033s-.087-.052-.113-.091a.229.229 0 01-.039-.133h.161c0 .086.051.129.154.129.038 0 .068-.008.089-.023s.032-.038.032-.065z"/>
  </symbol>
  <symbol id="icon-client-e" viewBox="0 0 32 32">
    <path fill="var(--color1, #afb1b8)" d="M11.426 18.977a.288.288 0 01.063.185.297.297 0 01-.098.233.424.424 0 01-.285.085h-.501v-1.171h.491a.42.42 0 01.272.078c.032.027.057.06.073.098s.024.079.022.121a.269.269 0 01-.057.179.267.267 0 01-.149.092.287.287 0 01.169.1zm-.587-.177h.21a.192.192 0 00.133-.039.135.135 0 00.045-.115c.001-.021-.002-.042-.009-.062s-.02-.038-.035-.052a.204.204 0 00-.137-.039h-.206v.307zm.363.449a.146.146 0 00.05-.119c.001-.023-.003-.045-.011-.066s-.022-.039-.039-.054a.208.208 0 00-.142-.042h-.22v.322h.223c.05.003.1-.011.141-.041zM12.429 19.48l-.273-.458h-.103v.458h-.235v-1.171h.444a.434.434 0 01.309.1.375.375 0 01.033.484.363.363 0 01-.212.119l.291.468h-.255zm-.375-.617h.192c.133 0 .2-.059.2-.177a.184.184 0 00-.049-.132.206.206 0 00-.151-.047h-.194l.002.356zM13.713 19.244h-.468l-.083.236h-.246l.43-1.158h.266l.428 1.158h-.246l-.081-.236zm-.063-.177l-.171-.494-.171.494h.342zM15.319 19.48h-.233l-.523-.796v.796h-.232v-1.171h.232l.523.801v-.801h.233v1.171zM16.649 19.2a.513.513 0 01-.211.207.689.689 0 01-.328.074h-.415V18.31h.415a.705.705 0 01.328.072.494.494 0 01.211.204.683.683 0 010 .614zm-.267-.028a.428.428 0 000-.558.409.409 0 00-.292-.1h-.162v.758h.162a.402.402 0 00.292-.1zM13.858 11.794s3.008 1.14 2.944 2.79v2.791s-3.006-1.141-2.943-2.791l-.001-2.79zM19.483 16.722a4.1 4.1 0 011.911-.707v-.874a3.918 3.918 0 00-1.911 1.581z"/>
    <path fill="var(--color1, #afb1b8)" d="M19.142 16.985a4.09 4.09 0 012.253-2.027v-2.517s-4.284 1.624-4.194 3.974v3.974s.191-.073.491-.209c0-.127 0-.255.014-.384a4.132 4.132 0 011.436-2.81z"/>
    <path fill="var(--color1, #afb1b8)" d="M18.734 18.462c.023-.276.073-.548.15-.814a3.848 3.848 0 00-.907 2.4c.243-.117.526-.264.824-.436a4.152 4.152 0 01-.067-1.151zM18.904 18.476c-.029.348-.011.698.053 1.042 1.17-.703 2.486-1.79 2.435-3.103v-.114a3.834 3.834 0 00-2.227 1.045 3.96 3.96 0 00-.261 1.131z"/>
  </symbol>
  <symbol id="icon-client-f" viewBox="0 0 32 32">
    <path fill="var(--color1, #afb1b8)" d="M16.044 15.76a.564.564 0 01-.104-.364v-.528c0-.162.035-.285.104-.369s.188-.126.356-.126c.158 0 .271.036.337.107a.457.457 0 01.1.316v.124h-.283v-.126a.726.726 0 00-.008-.123.119.119 0 00-.04-.073.155.155 0 00-.103-.028.165.165 0 00-.108.03.143.143 0 00-.047.081.638.638 0 00-.011.131v.641a.351.351 0 00.036.18.139.139 0 00.129.054.148.148 0 00.1-.029.129.129 0 00.042-.078.69.69 0 00.009-.128v-.13h.283v.119a.5.5 0 01-.098.332c-.065.078-.176.118-.339.118s-.286-.042-.356-.129zM17.223 15.766c-.072-.082-.107-.202-.107-.361v-.556c0-.157.036-.276.107-.356s.191-.121.359-.12c.166 0 .285.04.357.12s.108.199.108.356v.556c0 .157-.036.277-.109.36s-.191.124-.356.124c-.165 0-.287-.042-.359-.124zm.49-.134a.327.327 0 00.034-.165v-.681a.322.322 0 00-.033-.161c-.014-.019-.034-.035-.058-.044s-.049-.013-.075-.009c-.025-.003-.051 0-.075.01s-.044.025-.058.044a.312.312 0 00-.034.161v.684a.317.317 0 00.034.165.183.183 0 00.133.055c.025 0 .05-.005.073-.014s.043-.023.06-.041v-.003zM18.386 14.388h.305l.229 1.025.234-1.026h.297l.03 1.48h-.219l-.023-1.029-.226 1.029h-.176l-.234-1.033-.022 1.033h-.221l.028-1.48zM19.823 14.388h.475c.274 0 .41.14.41.42 0 .268-.144.402-.432.402h-.162v.658h-.293l.002-1.48zm.405.633a.209.209 0 00.161-.047.25.25 0 00.042-.167.505.505 0 00-.014-.134c-.004-.015-.012-.029-.022-.041s-.023-.022-.037-.03a.294.294 0 00-.131-.024h-.114v.442h.114zM21.13 14.388h.315l.323 1.48h-.273l-.064-.341h-.281l-.066.341h-.277l.323-1.48zm.269.968l-.11-.621-.11.621h.219zM22.029 14.388h.205l.393.844v-.844h.243v1.48h-.195l-.395-.881v.881h-.251l.001-1.48zM23.439 15.304l-.327-.914h.275l.199.587.187-.587h.269l-.322.914v.564h-.281v-.564zM16.496 16.516v.077h-.239v.601h-.1v-.601h-.24v-.077h.58zM17.246 17.195h-.077c-.008 0-.016-.002-.022-.006s-.01-.009-.013-.016l-.069-.161h-.332l-.069.161a.042.042 0 01-.011.018.029.029 0 01-.022.006h-.077l.293-.679h.102l.297.676zm-.485-.252h.277l-.117-.276a.483.483 0 01-.022-.064l-.011.036-.011.029-.116.276zM17.751 17.128a.505.505 0 00.055 0c.016-.002.032-.004.047-.008l.042-.012c.014-.005.026-.011.039-.017v-.153h-.117l-.009-.001a.016.016 0 01-.007-.004l-.004-.006c-.001-.003-.002-.004-.001-.007v-.052h.227v.26a.419.419 0 01-.124.055.588.588 0 01-.159.018.434.434 0 01-.148-.025.326.326 0 01-.22-.32.322.322 0 01.219-.32.542.542 0 01.308-.002.347.347 0 01.11.062l-.028.042c-.002.004-.006.007-.009.009s-.009.003-.013.004a.037.037 0 01-.018-.005l-.029-.016a.276.276 0 00-.093-.033.462.462 0 00-.074-.006.331.331 0 00-.113.019.233.233 0 00-.141.138.337.337 0 000 .226.237.237 0 00.059.085.246.246 0 00.086.054.303.303 0 00.116.013zM18.685 17.117h.32v.077h-.418v-.679h.1l-.002.601zM19.338 17.195h-.1v-.679h.1v.679zM19.711 16.519a.044.044 0 01.015.012l.428.512v-.024-.506h.087v.682h-.05c-.008.001-.015-.001-.022-.004s-.011-.008-.016-.013l-.428-.511v.528h-.084v-.679h.052c.006 0 .011.001.016.003zM20.98 16.516v.075h-.355v.224h.288v.072h-.288v.232h.355v.075h-.458v-.677h.458zM10.478 12.323l4.45 1.159v4.061l-4.45-1.158v-4.061zm-.285-.346v4.605l5.02 1.308v-4.604l-5.02-1.308z"/>
    <path fill="var(--color1, #afb1b8)" d="M12.883 20.027l-5.021-1.309v-4.604l5.021 1.308v4.605zM10.276 12.271l4.392 1.144-1.868 1.714-4.392-1.145 1.868-1.713zm-.083-.294l-2.33 2.137 5.021 1.308 2.329-2.137-5.02-1.308zM13.166 19.768l2.047-1.878-2.047-.534v2.412z"/>
  </symbol>
  <symbol id="icon-features-antenna" viewBox="0 0 32 32">
    <path fill="var(--color2, #212121)" d="M30.773 22.098l-8.443-8.505.937-4.615c.242.094.499.144.758.146h.006a2.159 2.159 0 10-2.008-1.435l-4.96.605L8.972.161a.534.534 0 00-.377-.16.532.532 0 00-.373.155L6.709 1.66a.534.534 0 000 .754l.814.826a14.943 14.943 0 002.519 17.663.513.513 0 00.146.098c-.034.18-.051.364-.052.547v6.187h-6.4a2.67 2.67 0 00-2.667 2.667v1.067c0 .295.239.533.533.533h24.533a.533.533 0 00.533-.533v-1.067a2.67 2.67 0 00-2.667-2.667h-6.4v-2.742a15.09 15.09 0 003.049.32 14.854 14.854 0 007.04-1.783l.818.823a.534.534 0 00.377.16.532.532 0 00.373-.155l1.513-1.504a.534.534 0 000-.754zM23.28 6.233a1.066 1.066 0 11.752 1.822h-.003a1.067 1.067 0 01-.747-1.823h-.002zm-1.256 3.505l-.598 2.946-1.175-1.182 1.774-1.763zm-.605-.902l-1.92 1.909-1.485-1.493 3.405-.415zM24.004 28.8a1.6 1.6 0 011.6 1.6v.533H2.137V30.4a1.6 1.6 0 011.6-1.6h20.267zm-7.467-2.133v1.067h-5.333v-1.067h5.333zM11.204 25.6v-4.053c0-1.294 1.196-2.347 2.667-2.347s2.667 1.053 2.667 2.347V25.6h-5.333zm6.4-1.696v-2.357c0-1.882-1.675-3.413-3.733-3.413a3.8 3.8 0 00-3.281 1.786A13.87 13.87 0 018.311 4.033l18.602 18.708a13.818 13.818 0 01-9.309 1.163zm11.289-.684L7.836 2.039l.755-.752 7.935 7.98c.004 0 .006.007.01.01l13.115 13.191-.757.752z"/>
    <path fill="var(--color3, #2196f3)" d="M13.876 20.267h-.005a1.6 1.6 0 10-.004 3.2h.005a1.6 1.6 0 10.004-3.2zm.373 1.978a.534.534 0 01-.752-.756.534.534 0 01.373-.155.532.532 0 01.373.911h.005z"/>
  </symbol>
  <symbol id="icon-features-astronaut" viewBox="0 0 32 32">
    <path fill="var(--color3, #2196f3)" d="M31.974 4.524a.534.534 0 00-.43-.363l-1.91-.278-.855-1.731c-.179-.365-.777-.365-.956 0l-.855 1.731-1.91.278a.535.535 0 00-.296.91l1.383 1.348-.326 1.903c-.034.2.048.402.212.522a.53.53 0 00.562.04l1.709-.899 1.709.899a.536.536 0 00.775-.563l-.326-1.903 1.383-1.348a.536.536 0 00.135-.547zm-2.463 1.327a.534.534 0 00-.153.472l.191 1.114-1-.526a.533.533 0 00-.498 0l-1.001.526.191-1.114a.534.534 0 00-.153-.472l-.81-.789 1.119-.163a.532.532 0 00.402-.292l.5-1.013.5 1.013a.535.535 0 00.402.292l1.119.163-.809.789zM26.133 20.522h-1.067v1.067h1.067v-1.067zM26.133 22.656h-1.067v1.067h1.067v-1.067zM27.2 21.589h-1.067v1.067H27.2v-1.067zM25.067 21.589H24v1.067h1.067v-1.067zM22.4 26.389h-1.067v1.067H22.4v-1.067zM22.4 28.522h-1.067v1.067H22.4v-1.067zM23.467 27.456H22.4v1.067h1.067v-1.067zM21.333 27.456h-1.067v1.067h1.067v-1.067zM16 24.256h-1.067v1.067H16v-1.067zM16 26.389h-1.067v1.067H16v-1.067zM17.067 25.322H16v1.067h1.067v-1.067zM14.933 25.322h-1.067v1.067h1.067v-1.067zM5.866 6.122H4.799v1.067h1.067V6.122zM5.866 8.255H4.799v1.067h1.067V8.255z"/>
    <path fill="var(--color3, #2196f3)" d="M6.933 7.189H5.866v1.067h1.067V7.189zM4.8 7.189H3.733v1.067H4.8V7.189z"/>
    <path fill="var(--color2, #212121)" d="M24.715 14.159a1.775 1.775 0 00-1.188-.705 1.778 1.778 0 00-1.34.352l-1.252.96-1.898 1.417-1.358-.541c2.421-1.086 4.114-3.508 4.114-6.32 0-3.823-3.123-6.933-6.961-6.933s-6.961 3.11-6.961 6.933a6.86 6.86 0 001.12 3.758l-2.764-.024h-.005c-.009 0-.015.004-.023.005a.515.515 0 00-.155.031l-.038.013c-.006.003-.013.003-.019.006l-3.233 1.596-.001.001-1.893.911a.397.397 0 00-.063.035 1.779 1.779 0 00-.598 2.295c.22.429.595.745 1.056.889a1.776 1.776 0 001.378-.128l1.388-.738 2.264-1.169 1.357-.008L2.2 22.211l-.002.001-1.339 1.333c-.316.315-.49.732-.49 1.178s.174.863.49 1.179c.325.323.752.485 1.179.485s.854-.162 1.18-.485l1.314-1.309 1.741-1.3.901.897-1.762 1.754-.002.001-1.339 1.333c-.316.315-.49.732-.49 1.178s.174.863.49 1.179c.325.323.753.485 1.18.485s.855-.162 1.18-.485l3.482-3.467.001-.002 1.01-1-.004-.004c.006-.006.015-.009.022-.015l5.166-5.658 3.471.494a.52.52 0 00.262-.033c.018-.006.033-.015.05-.023.019-.01.039-.015.058-.027l3.213-2.133c.012-.008.018-.021.029-.029.013-.01.029-.014.041-.026l1.271-1.191c.662-.62.753-1.635.212-2.362zM2.13 17.77a.714.714 0 01-.558.052.717.717 0 01-.213-1.26l1.314-.632.449 1.313-.992.527zm3.498-1.828l-1.548.8-.439-1.283 2.027-1.001-.04 1.484zm15.099-6.62a5.79 5.79 0 01-.599 2.559l-4.181-1.899a1.863 1.863 0 00-.788-1.388l1.464-4.86c2.378.756 4.105 2.974 4.105 5.588zm-11.789 0c0-3.235 2.644-5.867 5.894-5.867.253 0 .5.021.745.052l-1.432 4.754c-.019-.001-.037-.006-.057-.006-1.033 0-1.873.837-1.873 1.867s.84 1.867 1.873 1.867c.694 0 1.294-.383 1.618-.945l3.862 1.755a5.894 5.894 0 01-4.737 2.39c-3.25 0-5.894-2.632-5.894-5.867zm5.956.8c0 .441-.362.8-.806.8s-.806-.359-.806-.8c0-.441.362-.8.806-.8s.806.359.806.8zM2.465 25.146a.608.608 0 01-.854.001.592.592 0 010-.844l.962-.959.851.848-.959.955zm3.214 3.734a.608.608 0 01-.855.001.592.592 0 010-.844l.963-.959.852.848-.96.955zm3.481-3.469l-.002.001-1.765 1.76-.852-.848 1.763-1.755.002-.001c.04-.04.065-.088.09-.135.007-.014.02-.026.026-.04.017-.041.019-.085.026-.129.003-.025.014-.047.014-.073 0-.036-.013-.07-.02-.106-.006-.032-.006-.065-.019-.095a.55.55 0 00-.091-.138c-.01-.012-.014-.027-.025-.038h-.001l-.001-.002-1.607-1.6c-.017-.017-.039-.024-.058-.038a.507.507 0 00-.087-.058.515.515 0 00-.093-.033.507.507 0 00-.103-.02.5.5 0 00-.095.005.53.53 0 00-.104.02.477.477 0 00-.094.045c-.02.011-.042.015-.061.029L4.23 23.486l-.901-.897 2.399-2.386 4.361 4.289-.928.919zm6.819-7.017c-.015-.002-.03.004-.045.003a.556.556 0 00-.3.075.492.492 0 00-.083.061c-.013.011-.028.017-.04.029l-4.698 5.146-4.328-4.257 2.833-2.818a.534.534 0 00-.379-.911v-.001l-2.219.013.028-1.607 3.104.027a6.947 6.947 0 004.981 2.101c.437 0 .864-.045 1.279-.123.04.032.079.065.13.085l2.41.96.152.758.178.885-3.003-.427zm4.041.178l-.313-1.558 1.446-1.08.947 1.257-2.08 1.381zm3.754-2.831l-.838.785-.931-1.236.831-.637a.735.735 0 01.543-.143.718.718 0 01.48.284.713.713 0 01-.085.947z"/>
    <path fill="var(--color2, #212121)" d="M13.602 18.544l-2.143-2.133a.534.534 0 00-.753 0l-2.142 2.133a.537.537 0 000 .756l2.142 2.133a.536.536 0 00.753 0l2.143-2.133a.535.535 0 000-.756zm-2.519 1.759l-1.387-1.381 1.387-1.381 1.387 1.381-1.387 1.381zM17.164 5.071l-.258 1.036c.071.018 1.738.452 1.738 2.149h1.067c0-2.017-1.666-2.965-2.547-3.185zM19.711 9.322h-1.067v1.067h1.067V9.322z"/>
  </symbol>
  <symbol id="icon-features-clock" viewBox="0 0 32 32">
    <path fill="var(--color2, #212121)" d="M31.297 15.301C31.295 6.849 24.442-.002 15.989 0S.686 6.855.688 15.308a15.304 15.304 0 0010.649 14.576.662.662 0 00.529-.065.637.637 0 00.283-.356l3.865-12.25a1.912 1.912 0 10-.84-3.635l-5.106-5.107a.637.637 0 00-.902.902l5.103 5.109a1.876 1.876 0 00.536 2.309l-3.683 11.673C3.844 25.783.118 17.71 2.799 10.432S13.553-.572 20.831 2.109s11.004 10.754 8.323 18.032a14.042 14.042 0 01-7.462 7.973l-.398-1.874a.638.638 0 00-1.048-.344l-3.837 3.426a.637.637 0 00.231 1.084l4.899 1.563a.638.638 0 00.819-.74l-.391-1.839a15.255 15.255 0 009.329-14.089zm-15.305-.637a.638.638 0 110 1.277.638.638 0 010-1.277zm2.101 14.864l2.184-1.948.603 2.84-2.787-.892z"/>
    <path fill="var(--color3, #2196f3)" d="M15.354 3.185V4.46a.638.638 0 101.276 0V3.185a.638.638 0 00-1.276 0zM3.876 14.664a.638.638 0 000 1.276h1.275a.638.638 0 100-1.276H3.876zM28.108 15.939a.638.638 0 100-1.276h-1.275a.638.638 0 000 1.276h1.275z"/>
  </symbol>
  <symbol id="icon-features-diagram" viewBox="0 0 32 32">
    <path fill="var(--color3, #2196f3)" d="M14.926 14.965h1.066v4.798h-1.066v-4.797zM19.19 17.097h1.066v2.665H19.19v-2.665zM10.661 18.696h1.066v1.066h-1.066v-1.066zM7.463 18.163h1.066v1.599H7.463v-1.599z"/>
    <path fill="var(--color2, #212121)" d="M1.599 28.291h25.587a1.6 1.6 0 001.599-1.599V24.56a1.6 1.6 0 00-1.599-1.599h-.533V9.668L29.681 6.8a1.608 1.608 0 10-.746-.763L26.654 8.2V6.97a1.6 1.6 0 00-1.599-1.599H3.733A1.6 1.6 0 002.134 6.97v15.992h-.533a1.6 1.6 0 00-1.599 1.599v2.132a1.6 1.6 0 001.599 1.599zM30.384 4.837a.533.533 0 110 1.067.533.533 0 010-1.067zM3.198 6.969c0-.294.239-.533.533-.533h21.322c.294 0 .533.239.533.533v2.239l-1.066 1.013V8.035a.533.533 0 00-.533-.533H4.797a.533.533 0 00-.533.533v13.326c0 .294.239.533.533.533h19.19a.533.533 0 00.533-.533v-9.674l1.066-1.01v12.284H3.198V6.969zm4.798 6.93a1.598 1.598 0 101.107 2.749l1.853.93a.532.532 0 00.636-.123l3.939-4.431 3.872 2.901a.533.533 0 00.686-.039l3.365-3.188v8.131H5.33V8.569h18.124v2.66l-3.771 3.572-3.904-2.927a.533.533 0 00-.718.072l-3.993 4.493-1.493-.746c.011-.064.018-.129.02-.193a1.6 1.6 0 00-1.599-1.599zm.533 1.599a.533.533 0 11-1.067 0 .533.533 0 011.067 0zm3.198 8.528h5.331v.533a.533.533 0 01-.533.533h-4.264a.533.533 0 01-.533-.533v-.533zm-10.661.534c0-.294.239-.533.533-.533h9.062v.533a1.6 1.6 0 001.599 1.599h4.264a1.6 1.6 0 001.599-1.599v-.533h9.062c.294 0 .533.239.533.533v2.132a.533.533 0 01-.533.533H1.598a.533.533 0 01-.533-.533V24.56z"/>
  </symbol>
  <symbol id="icon-header-envelope" viewBox="0 0 32 32">
    <path fill="var(--color3, #2196f3)" d="M29 4H3C1.346 4 0 5.256 0 6.801v16.803c0 1.544 1.346 2.801 3 2.801h26c1.654 0 3-1.256 3-2.801V6.801C32 5.257 30.654 4 29 4zm0 1.867c.136 0 .265.026.383.072L16 16.767 2.617 5.939c.118-.046.247-.072.383-.072h26zm0 18.67H3c-.552 0-1-.418-1-.934V7.911l13.345 10.796c.188.152.422.228.655.228s.467-.076.655-.228L30 7.911v15.692c0 .515-.448.934-1 .934z"/>
  </symbol>
  <symbol id="icon-header-phone" viewBox="0 0 32 32">
    <path fill="var(--color4, #757575)" d="M23.467 0H8.534c-1.765 0-3.2 1.34-3.2 2.987v25.889c0 1.647 1.435 2.987 3.2 2.987h14.933c1.765 0 3.2-1.34 3.2-2.987V2.987c0-1.647-1.435-2.987-3.2-2.987zM8.533 1.992h14.933c.589 0 1.067.446 1.067.996v20.91H7.466V2.988c0-.549.478-.996 1.067-.996zm14.934 27.88H8.534c-.589 0-1.067-.446-1.067-.996v-2.987h17.067v2.987c0 .549-.478.996-1.067.996z"/>
  </symbol>
  <symbol id="icon-soc-fb" viewBox="0 0 32 32">
    <path fill="var(--color5, #fff)" opacity=".1" d="M32 16c0 4.418-1.791 8.418-4.686 11.314S20.419 32 16 32s-8.418-1.791-11.314-4.686C1.791 24.419 0 20.419 0 16S1.791 7.582 4.686 4.686C7.581 1.791 11.581 0 16 0s8.418 1.791 11.314 4.686A15.95 15.95 0 0132 16z"/>
    <path fill="var(--color5, #fff)" d="M18.422 11.142h1.328V8.829a17.317 17.317 0 00-1.935-.102c-1.915 0-3.226 1.204-3.226 3.418v2.037h-2.113v2.585h2.113v6.505h2.59v-6.505h2.027l.322-2.585h-2.35v-1.781c.001-.747.202-1.259 1.243-1.259z"/>
  </symbol>
  <symbol id="icon-soc-ig" viewBox="0 0 32 32">
    <path fill="var(--color5, #fff)" opacity=".1" d="M32 16c0 4.418-1.791 8.418-4.686 11.314S20.419 32 16 32s-8.418-1.791-11.314-4.686C1.791 24.419 0 20.419 0 16S1.791 7.582 4.686 4.686C7.581 1.791 11.581 0 16 0s8.418 1.791 11.314 4.686A15.95 15.95 0 0132 16z"/>
    <path fill="var(--color5, #fff)" d="M23.258 13.004c-.034-.773-.159-1.304-.338-1.765a3.557 3.557 0 00-.841-1.29 3.589 3.589 0 00-1.287-.838c-.463-.179-.992-.304-1.764-.338-.779-.037-1.026-.046-3.001-.046s-2.222.009-2.998.043c-.773.034-1.304.159-1.764.338a3.557 3.557 0 00-1.29.841 3.589 3.589 0 00-.838 1.287c-.179.463-.304.992-.338 1.764-.037.779-.045 1.026-.045 3.001s.008 2.222.043 2.998c.034.773.159 1.304.338 1.765.185.489.472.926.841 1.29.364.369.804.656 1.287.838.463.179.992.304 1.765.338.776.034 1.023.043 2.998.043s2.222-.008 2.998-.043c.773-.034 1.304-.159 1.764-.338a3.72 3.72 0 002.128-2.128c.179-.463.304-.992.338-1.765.034-.776.043-1.023.043-2.998s-.003-2.222-.037-2.998zm-1.309 5.938c-.031.71-.151 1.094-.25 1.35a2.409 2.409 0 01-1.381 1.381c-.256.099-.642.219-1.35.25-.767.034-.997.043-2.938.043s-2.174-.008-2.938-.043c-.71-.031-1.094-.15-1.35-.25a2.228 2.228 0 01-.835-.543 2.264 2.264 0 01-.543-.835c-.099-.256-.219-.642-.25-1.35-.034-.767-.043-.997-.043-2.938s.008-2.174.043-2.938c.031-.71.151-1.094.25-1.35.117-.315.301-.602.546-.835.236-.242.52-.426.835-.543.256-.099.642-.219 1.35-.25.767-.034.997-.043 2.938-.043 1.944 0 2.174.008 2.938.043.71.031 1.094.151 1.35.25.315.116.602.301.835.543.241.236.426.52.543.835.099.256.219.642.25 1.35.034.767.043.997.043
  2.938s-.009 2.168-.043 2.935z"/>
    <path fill="var(--color5, #fff)" d="M16.027 12.265a3.737 3.737 0 10.003 7.475 3.737 3.737 0 00-.003-7.475zm0 6.16a2.424 2.424 0 110-4.849 2.424 2.424 0 010 4.849zM20.784 12.117a.872.872 0 11-1.744 0 .872.872 0 011.744 0z"/>
  </symbol>
  <symbol id="icon-soc-in" viewBox="0 0 32 32">
    <path fill="var(--color5, #fff)" opacity=".1" d="M32 16c0 4.418-1.791 8.418-4.686 11.314S20.419 32 16 32s-8.418-1.791-11.314-4.686C1.791 24.419 0 20.419 0 16S1.791 7.582 4.686 4.686C7.581 1.791 11.581 0 16 0s8.418 1.791 11.314 4.686A15.95 15.95 0 0132 16z"/>
    <path fill="var(--color5, #fff)" d="M23.269 23.273v-.001h.004v-5.335c0-2.61-.562-4.62-3.613-4.62-1.467 0-2.451.805-2.853 1.568h-.042v-1.324h-2.893v9.711h3.012v-4.809c0-1.266.24-2.49 1.808-2.49 1.545 0 1.568 1.445 1.568 2.572v4.728h3.009zM8.967 13.562h3.016v9.711H8.967v-9.711zM10.474 8.727c-.964 0-1.747.782-1.747 1.747s.782 1.763 1.747 1.763c.964 0 1.747-.799 1.747-1.763s-.783-1.747-1.747-1.747z"/>
  </symbol>
  <symbol id="icon-soc-tw" viewBox="0 0 32 32">
    <path fill="var(--color3, #2196f3)" d="M32 16c0 4.418-1.791 8.418-4.686 11.314S20.419 32 16 32s-8.418-1.791-11.314-4.686C1.791 24.419 0 20.419 0 16S1.791 7.582 4.686 4.686C7.581 1.791 11.581 0 16 0s8.418 1.791 11.314 4.686A15.95 15.95 0 0132 16z"/>
    <path fill="var(--color5, #fff)" d="M23.273 11.49a6.248 6.248 0 01-1.718.471 2.967 2.967 0 001.312-1.648 5.963 5.963 0 01-1.891.722 2.981 2.981 0 00-5.158 2.039c0 .236.02.464.069.68a8.439 8.439 0 01-6.146-3.119 2.985 2.985 0 00.917 3.985 2.943 2.943 0 01-1.347-.367v.033a2.996 2.996 0 002.389 2.93 2.992 2.992 0 01-.782.098 2.64 2.64 0 01-.565-.051 3.01 3.01 0 002.786 2.077 5.991 5.991 0 01-3.697 1.272 5.59 5.59 0 01-.714-.041 8.393 8.393 0 004.575 1.338c5.487 0 8.487-4.545 8.487-8.485 0-.132-.005-.259-.011-.385a5.95 5.95 0 001.495-1.548z"/>
  </symbol>
  </defs>
</svg>